<svg xmlns="http://www.w3.org/2000/svg" width="130.182" height="105.781" viewBox="0 0 130.182 105.781"><g transform="translate(-1 -1.497)"><path d="M117.854,27.831c.079,1.148.079,2.3.079,3.454,0,35.292-26.867,75.994-75.993,75.994v-.021A75.611,75.611,0,0,1,1,95.283a54.33,54.33,0,0,0,6.357.386A53.631,53.631,0,0,0,40.528,84.214,26.742,26.742,0,0,1,15.576,65.667a26.622,26.622,0,0,0,12.058-.46A26.711,26.711,0,0,1,6.209,39.027v-.338a26.539,26.539,0,0,0,12.122,3.342A26.742,26.742,0,0,1,10.065,6.37a75.8,75.8,0,0,0,55.045,27.9,26.734,26.734,0,0,1,45.515-24.36,53.594,53.594,0,0,0,16.961-6.484A26.808,26.808,0,0,1,115.844,18.2,53.117,53.117,0,0,0,131.182,14,54.259,54.259,0,0,1,117.854,27.831Z" transform="translate(0 0)" fill="#1d9bf0"/></g></svg>